<?xml version="1.0" standalone="no"?>
<!DOCTYPE svg PUBLIC "-//W3C//DTD SVG 20010904//EN"
 "http://www.w3.org/TR/2001/REC-SVG-20010904/DTD/svg10.dtd">
<svg version="1.0" xmlns="http://www.w3.org/2000/svg"
 width="849.000000pt" height="849.000000pt" viewBox="0 0 849.000000 849.000000"
 preserveAspectRatio="xMidYMid meet">
<metadata>
Created by potrace 1.11, written by Peter Selinger 2001-2013
</metadata>
<g transform="translate(0.000000,849.000000) scale(0.100000,-0.100000)"
fill="#000000" stroke="none">
<path d="M1285 5688 c-31 -17 -35 -28 -35 -99 0 -50 4 -70 17 -80 13 -12 178
-15 943 -19 765 -4 930 -7 943 -19 15 -12 17 -47 17 -317 0 -204 4 -311 11
-328 20 -43 50 -47 276 -44 193 3 213 5 232 22 22 20 22 23 19 353 l-3 333
900 0 c507 0 895 -4 890 -9 -6 -4 -343 -252 -750 -551 -407 -298 -744 -548
-748 -556 -5 -8 0 -21 13 -34 20 -20 26 -20 1433 -20 1262 0 1415 2 1435 16
19 13 22 24 22 88 0 56 -4 77 -17 87 -13 12 -191 15 -1035 19 l-1018 5 735
539 c404 296 742 547 751 557 21 23 12 46 -21 59 -39 15 -4984 13 -5010 -2z"/>
<path d="M1705 5180 c-239 -15 -364 -71 -419 -190 -19 -41 -21 -63 -21 -240 0
-165 3 -201 18 -233 28 -60 82 -112 146 -141 121 -54 165 -56 1246 -56 880 0
993 2 1013 16 19 13 22 24 22 88 0 56 -4 77 -17 87 -13 12 -177 15 -938 19
-761 4 -925 7 -938 19 -15 12 -17 39 -17 202 0 183 1 188 22 203 19 14 77 16
424 16 479 0 447 -9 442 115 l-3 80 -35 12 c-39 13 -734 15 -945 3z"/>
<path d="M846 4928 c-14 -19 -16 -72 -16 -375 l0 -353 -143 0 c-177 0 -177 0
-177 -113 0 -105 4 -107 182 -107 l138 0 0 -477 c1 -263 5 -498 9 -522 15 -76
71 -129 159 -152 30 -7 170 -13 390 -16 410 -5 382 -14 382 113 0 55 -4 86
-12 91 -7 4 -124 10 -259 13 -188 4 -250 8 -262 19 -15 12 -17 58 -17 472 l0
459 378 0 377 0 0 -462 c0 -416 2 -468 18 -513 35 -103 117 -164 247 -185 99
-15 2142 -14 2158 2 9 9 12 154 12 590 l0 578 365 0 365 0 0 -574 c0 -509 2
-576 16 -590 13 -13 44 -16 183 -16 150 0 170 2 184 18 15 17 17 72 17 590 l0
572 336 0 c199 0 343 -4 354 -10 38 -20 40 -56 40 -611 0 -519 1 -539 19 -548
26 -14 1646 -15 1672 0 16 8 19 21 19 92 0 51 -5 88 -12 95 -9 9 -81 12 -262
12 -138 0 -261 3 -274 6 -51 14 -52 21 -52 596 0 467 -2 536 -16 556 -15 21
-21 22 -173 22 -152 0 -158 -1 -179 -23 l-22 -23 0 -562 0 -562 -165 0 -165 0
0 508 c0 507 0 508 -22 552 -13 24 -40 58 -61 74 l-39 31 -1241 3 c-1101 2
-1243 1 -1264 -13 l-23 -15 0 -570 0 -570 -815 0 c-795 0 -815 0 -825 19 -14
27 -14 885 0 912 10 18 26 19 478 19 272 0 473 -4 482 -10 11 -7 15 -40 18
-149 l4 -141 -379 0 c-308 0 -383 -3 -398 -14 -30 -22 -34 -142 -7 -176 l20
-25 544 -2 c425 -2 548 0 568 10 l25 13 0 249 c0 249 0 250 -26 306 -31 65
-72 101 -155 132 -59 22 -63 22 -684 22 -433 0 -636 -3 -661 -11 -28 -9 -39
-9 -54 2 -15 11 -104 14 -472 14 l-453 0 0 358 c0 335 -1 360 -18 375 -16 14
-44 17 -180 17 -155 0 -161 -1 -176 -22z"/>
<path d="M7075 4692 c-149 -70 -152 -282 -6 -359 88 -46 196 -19 255 65 63 89
39 212 -52 276 -54 39 -137 46 -197 18z"/>
</g>
</svg>
